<svg id="Layer_1" data-name="Layer 1" xmlns="http://www.w3.org/2000/svg" viewBox="0 0 70 70"><defs><style>.cls-1,.cls-2{fill:#ec008c;}.cls-1{opacity:0.1;}</style></defs><circle class="cls-1" cx="35" cy="35" r="35"/><path class="cls-2" d="M22.29,31.44a.83.83,0,0,0-.83.83.84.84,0,0,0,.83.84H46a.84.84,0,0,0,.83-.84.83.83,0,0,0-.83-.83Z"/><path class="cls-2" d="M35.41,50.64h-8.5V45.37a2.79,2.79,0,0,0-2.78-2.78H18.87V24.83A1.11,1.11,0,0,1,20,23.72h3.75v1.76a1.94,1.94,0,0,0,1.94,1.94h2.8a1.94,1.94,0,0,0,1.94-1.94V23.72h7.43v1.76a1.94,1.94,0,0,0,1.94,1.94h2.8a2,2,0,0,0,1.94-1.94V23.72h3.75a1.11,1.11,0,0,1,1.11,1.11V36.08a.83.83,0,0,0,.83.83.84.84,0,0,0,.84-.83V24.83a2.79,2.79,0,0,0-2.78-2.78H44.52V19.89A2,2,0,0,0,42.59,18h-2.8a1.94,1.94,0,0,0-1.94,1.94v2.16H30.42V19.89a1.94,1.94,0,0,0-2-1.94h-2.8a1.94,1.94,0,0,0-1.94,1.94v2.16H20a2.79,2.79,0,0,0-2.78,2.78V43.9a.87.87,0,0,0,.24.59L25,52.06a.83.83,0,0,0,.58.24h9.74a.83.83,0,0,0,.08-1.66Zm4.38-31h2.8a.28.28,0,0,1,.27.28v5.59a.28.28,0,0,1-.27.28h-2.8a.28.28,0,0,1-.27-.28V19.89A.28.28,0,0,1,39.79,19.61Zm-14.12,0h2.8a.28.28,0,0,1,.27.28v5.59a.28.28,0,0,1-.27.28h-2.8a.28.28,0,0,1-.27-.28V19.89A.29.29,0,0,1,25.67,19.61Zm-.42,30.32-5.67-5.67h4.56a1.11,1.11,0,0,1,1.11,1.11Z"/><path class="cls-2" d="M47.49,39.44a9.31,9.31,0,1,0,9.31,9.31A9.31,9.31,0,0,0,47.49,39.44Zm0,17a7.64,7.64,0,1,1,7.64-7.64A7.65,7.65,0,0,1,47.49,56.39Z"/><path class="cls-2" d="M51.47,47.91l-3.16,0V44.49a.83.83,0,1,0-1.66,0v4.28a.83.83,0,0,0,.83.83l4,0a.83.83,0,1,0,0-1.66Z"/></svg>