<svg id="Layer_1" data-name="Layer 1" xmlns="http://www.w3.org/2000/svg" viewBox="0 0 60 60"><defs><style>.cls-1,.cls-2{fill:#00a7e1;}.cls-1{opacity:0.3;}.cls-3{fill:#fff;}</style></defs><path class="cls-1" d="M51.33,39c5.86-16.8,2.51-23.06-15.75-30.23,0,0-39-16.69-24.7,23C25.47,72.29,47.89,48.86,51.33,39Z"/><path class="cls-1" d="M53.82,23.39c-7.41-15.28-13.89-17.25-31-9.73,0,0-37.58,15.09-1.11,32.21C58.9,63.34,58.18,32.39,53.82,23.39Z"/><path class="cls-2" d="M54.09,30.48C52.88,12.75,47.36,8.31,27.77,8.88c0,0-42.37-.07-13.68,30.82C43.38,71.23,54.8,40.91,54.09,30.48Z"/><path class="cls-3" d="M46.57,22.71c0-.8,0-1.56,0-2.3a1,1,0,0,0-1-1c-4.5,0-7.93-1.32-10.78-4.07a1.05,1.05,0,0,0-1.47,0,14.52,14.52,0,0,1-10.74,4,1,1,0,0,0-1,1c0,.74,0,1.5,0,2.33-.15,7.56-.36,17.88,12.22,22.23A1.35,1.35,0,0,0,34,45a1.21,1.21,0,0,0,.34-.06C46.91,40.59,46.7,30.27,46.57,22.71ZM34,42.83c-10.78-3.92-10.63-12.5-10.47-20.06,0-.46,0-.89,0-1.32a16.39,16.39,0,0,0,10.44-4,16,16,0,0,0,10.44,4c0,.43,0,.86,0,1.32C44.61,30.33,44.77,38.91,34,42.83Z"/><path class="cls-3" d="M37.6,26.35l-5.05,5-2.17-2.17a1.06,1.06,0,0,0-1.5,1.5l2.9,2.91a1,1,0,0,0,.74.31,1,1,0,0,0,.73-.31l5.82-5.82a1.09,1.09,0,0,0,0-1.5A1,1,0,0,0,37.6,26.35Z"/></svg>