<svg id="Layer_1" data-name="Layer 1" xmlns="http://www.w3.org/2000/svg" viewBox="0 0 70 70"><defs><style>.cls-1,.cls-2{fill:#73308a;}.cls-1{opacity:0.1;}</style></defs><circle class="cls-1" cx="35" cy="35" r="35"/><path class="cls-2" d="M51,31h-.8v-.8a15.1,15.1,0,0,0-2.83-8.8h0a14.86,14.86,0,0,0-1.6-1.94,13.65,13.65,0,0,0-1.93-1.63,15.2,15.2,0,0,0-21.2,3.56l0,.05a15.06,15.06,0,0,0-2.8,8.75V31H19a4,4,0,0,0-4,4v4.8a4,4,0,0,0,4,4H20A2.39,2.39,0,0,0,24.6,43V31.79a2.4,2.4,0,0,0-2.4-2.4,2.44,2.44,0,0,0-.77.14A13.39,13.39,0,0,1,23.48,23a3.81,3.81,0,0,0,1.92.54,3.76,3.76,0,0,0,2.53-1,10.39,10.39,0,0,1,14.09,0,3.79,3.79,0,0,0,4.51.42,13.56,13.56,0,0,1,2,6.54,2.56,2.56,0,0,0-.78-.14,2.4,2.4,0,0,0-2.4,2.4V43a2.43,2.43,0,0,0,2.87,2.36,8.8,8.8,0,0,1-8.47,6.44H38.05a2.39,2.39,0,0,0-2.25-1.6H34.2a2.4,2.4,0,0,0,0,4.8h1.6a2.39,2.39,0,0,0,2.25-1.6H39.8a10.4,10.4,0,0,0,10.36-9.6H51a4,4,0,0,0,4-4V35A4,4,0,0,0,51,31Zm-34.4,8.8V35a2.4,2.4,0,0,1,2.4-2.4h.8v9.6H19A2.39,2.39,0,0,1,16.6,39.79ZM22.2,31a.8.8,0,0,1,.8.8V43a.8.8,0,1,1-1.6,0V31.79A.8.8,0,0,1,22.2,31Zm20.94-9.6a12,12,0,0,0-16.28,0,2.18,2.18,0,0,1-2.47.3,14.39,14.39,0,0,1,1-1.09,13.6,13.6,0,0,1,19.23,0,13.18,13.18,0,0,1,1,1.11A2.17,2.17,0,0,1,43.14,21.39Zm-7.34,32H34.2a.8.8,0,1,1,0-1.6h1.6a.8.8,0,1,1,0,1.6Zm12-9.6A.8.8,0,0,1,47,43V31.79a.8.8,0,0,1,1.6,0V43A.8.8,0,0,1,47.8,43.79Zm5.6-4a2.39,2.39,0,0,1-2.4,2.4h-.8v-9.6H51A2.4,2.4,0,0,1,53.4,35Z"/><path class="cls-2" d="M35,47h.22A10.72,10.72,0,0,0,43,36.71V29.84a.81.81,0,0,0-.58-.8l-7.2-2a.82.82,0,0,0-.44,0l-7.2,2a.81.81,0,0,0-.58.8v6.87A10.72,10.72,0,0,0,34.78,47ZM28.6,36.71V30.44L35,28.59l6.4,1.85v6.3A9.11,9.11,0,0,1,35,45.39,9.11,9.11,0,0,1,28.6,36.71Z"/><path class="cls-2" d="M38.77,34.43a.8.8,0,0,0-1.14,0L34.2,37.87l-1.43-1.44a.8.8,0,0,0-1.14,1.13l2,2a.82.82,0,0,0,1.14,0l4-4A.8.8,0,0,0,38.77,34.43Z"/></svg>