<svg id="Layer_1" data-name="Layer 1" xmlns="http://www.w3.org/2000/svg" viewBox="0 0 60 60"><defs><style>.cls-1,.cls-2{fill:#73308a;}.cls-1{opacity:0.3;}.cls-3{fill:#fff;}</style></defs><path class="cls-1" d="M51.33,39c5.86-16.8,2.51-23.06-15.75-30.23,0,0-39-16.69-24.7,23C25.47,72.29,47.89,48.86,51.33,39Z"/><path class="cls-1" d="M53.82,23.39c-7.41-15.28-13.89-17.25-31-9.73,0,0-37.58,15.09-1.11,32.21C58.9,63.34,58.18,32.39,53.82,23.39Z"/><path class="cls-2" d="M54.09,30.48C52.88,12.75,47.36,8.31,27.77,8.88c0,0-42.37-.07-13.68,30.82C43.38,71.23,54.8,40.91,54.09,30.48Z"/><path class="cls-3" d="M43.19,33.16A3.21,3.21,0,0,0,42,39.36a5.35,5.35,0,0,1-10.63-.84V33.07a7.5,7.5,0,0,0,6.43-7.41V17.09A1.07,1.07,0,0,0,36.77,16H34.62a1.07,1.07,0,1,0,0,2.14h1.07v7.5a5.36,5.36,0,1,1-10.71,0v-7.5h1.07a1.07,1.07,0,0,0,0-2.14H23.91a1.07,1.07,0,0,0-1.07,1.07v8.57a7.5,7.5,0,0,0,6.43,7.41v5.45a7.5,7.5,0,0,0,14.94.89,3.21,3.21,0,0,0-1-6.25Zm0,4.29a1.08,1.08,0,1,1,1.08-1.08A1.07,1.07,0,0,1,43.19,37.45Z"/></svg>