<svg id="Layer_1" data-name="Layer 1" xmlns="http://www.w3.org/2000/svg" viewBox="0 0 60 60"><defs><style>.cls-1,.cls-2{fill:#ec008c;}.cls-1{opacity:0.3;}.cls-3{fill:#fff;}</style></defs><path class="cls-1" d="M51.33,39c5.86-16.8,2.51-23.06-15.75-30.23,0,0-39-16.69-24.7,23C25.47,72.29,47.89,48.86,51.33,39Z"/><path class="cls-1" d="M53.82,23.39c-7.41-15.28-13.89-17.25-31-9.73,0,0-37.58,15.09-1.11,32.21C58.9,63.34,58.18,32.39,53.82,23.39Z"/><path class="cls-2" d="M54.09,30.48C52.88,12.75,47.36,8.31,27.77,8.88c0,0-42.37-.07-13.68,30.82C43.38,71.23,54.8,40.91,54.09,30.48Z"/><path class="cls-3" d="M29.85,20V21.8l3.06-1.57v-2.1L29.85,20Zm0,13.29,3.06-1.58V29L29.85,30.6v2.64ZM34,31.6l4,1.3V30.18l-4-1.3V31.6ZM38,34,34,32.7V38h4Zm-5.08-1.15-3.06,1.57V38h3.06V32.84Zm-3.06-3.42,3.06-1.57V25.21l-3.06,1.57ZM34,27.79l4,1.29V26.37l-4-1.3v2.72Zm-4.11-2.18L32.91,24V21.4L29.85,23v2.64ZM34,24l4,1.29V22.55l-4-1.29V24Zm0-3.82,4,1.3V19.51L34,18v2.14Zm8.23,8.75V38h2.66V29.78Zm-1,9.08V29l-2,1v8ZM26.87,29v9h1.94V30l-1.94-1Zm-1.05,9V28.9l-2.67.88V38Zm-5.77-2.08V38H22.1V35.88l-1.18-.34-.87.37ZM19,35.22l1.86-.78,1.24.35V29l4.31-1.42,2.4,1.19V19.36l4.52-2.69L39,18.78v10.1l2.56-1.27L45.9,29v5.76l1.24-.35,1.86.78V39H19V35.22ZM48,38V35.91l-.87-.37-1.18.34V38Z"/></svg>