<?xml version="1.0" encoding="utf-8"?>
<!-- Generator: Adobe Illustrator 25.2.3, SVG Export Plug-In . SVG Version: 6.00 Build 0)  -->
<svg version="1.1" xmlns="http://www.w3.org/2000/svg" xmlns:xlink="http://www.w3.org/1999/xlink" x="0px" y="0px"
	 viewBox="0 0 48 66" style="enable-background:new 0 0 48 66;" xml:space="preserve">
<style type="text/css">
	.st0{fill:#FFFFFF;}
</style>
<g id="Layer_2">
</g>
<g id="Layer_1">
	<path class="st0" d="M47.4,37.6l-4.9-7.5c-0.1-0.2-0.2-0.5-0.2-0.8c-1-10.9-9.9-19.1-20.9-19.1c-1,0-2.1,0.1-3,0.3l-4.2-7.9
		c-0.7-1.3-2.1-2.1-3.6-2.1c-0.3,0-0.6,0.1-1,0.1L3.6,2C2.3,2.4,1.2,3.3,0.7,4.6C0.2,5.8,0.4,7.2,1.2,8.3l2.7,3.8l-0.8,0.2
		c-1.4,0.3-2.5,1.4-2.9,2.7S0.1,18,1.1,19L3,21.1c-1.6,3-2.6,6.4-2.6,10.1c0,6.7,3.1,13.4,8.4,17.9c0.1,0.1,0.3,0.3,0.3,0.7v11.1
		c0,1.7,1.3,3.2,3,3.3l16.7,1.4c0.1,0,0.2,0,0.3,0c0.8,0,1.6-0.3,2.3-0.9c0.7-0.6,1-1.5,1-2.4v-7.2h5.2c2.7,0,4.9-2.2,4.9-4.9v-6.9
		h1.8c1.4,0,2.7-0.8,3.3-2C48.2,40.2,48.1,38.7,47.4,37.6z M3.9,15.4l5.3-1.2L3.8,6.5C3.5,6,3.7,5.3,4.3,5.1l6-1.4
		c0.1,0,0.1,0,0.2,0c0.3,0,0.6,0.1,0.8,0.5l7,12.9c0.3,0.5,0,1.1-0.5,1.2L12,19.6l4.2,8.6c0.3,0.6-0.2,1.2-0.8,1.2
		c-0.2,0-0.4-0.1-0.6-0.3L3.5,16.8C3,16.4,3.2,15.5,3.9,15.4z M44.8,39.9c-0.1,0.1-0.2,0.3-0.5,0.3h-2.9c-1.2,0-2.2,1-2.2,2.2v7.8
		c0,0.9-0.8,1.6-1.6,1.6h-5.8c-1.4,0-2.5,1.2-2.5,2.5l-0.1,7.9l-16.7-1.6v-11c0-1.2-0.5-2.3-1.4-3.2c-4.5-3.8-7.3-9.7-7.3-15.4
		c0-2.7,0.6-5.3,1.7-7.6l7.2,7.7c0.8,0.8,1.8,1.3,2.9,1.3c1.4,0,2.7-0.8,3.4-1.9c0.8-1.2,0.8-2.6,0.2-3.9l-2.4-5l1.8-0.4
		c1.2-0.3,2.3-1.1,2.7-2.3c0.5-1.2,0.5-2.5-0.1-3.6L20,13.4c0.5-0.1,1-0.1,1.4-0.1c9.2,0,16.9,7,17.7,16.2c0.1,0.8,0.3,1.5,0.7,2.2
		l4.9,7.5C44.9,39.5,44.8,39.8,44.8,39.9z"/>
</g>
</svg>
