<svg id="Layer_1" data-name="Layer 1" xmlns="http://www.w3.org/2000/svg" viewBox="0 0 300 110"><defs><style>.cls-1{fill:#73308a;}.cls-2{fill:#ec008c;}.cls-3{fill:#00a7e1;}</style></defs><path class="cls-1" d="M235,55.94V66.88h-2.16v-4.6h-3.62v4.6H227V55.94h2.15v4.28h3.62V55.94Z"/><path class="cls-1" d="M237.27,61.41a5.68,5.68,0,1,1,5.67,5.69A5.63,5.63,0,0,1,237.27,61.41Zm9.19,0A3.53,3.53,0,1,0,242.94,65,3.46,3.46,0,0,0,246.46,61.41Z"/><path class="cls-1" d="M250.21,63.5h2.15c0,1,.62,1.49,1.84,1.49s1.61-.47,1.61-1.1c0-.78-.88-1.12-1.92-1.48-1.56-.56-3.48-1.19-3.48-3.5A3.25,3.25,0,0,1,254,55.72a3.4,3.4,0,0,1,3.68,3.53h-2.14A1.34,1.34,0,0,0,254,57.81c-.89,0-1.4.45-1.4,1.1s.75,1.15,1.76,1.53c1.57.56,3.63,1.14,3.63,3.45,0,2.1-1.71,3.21-3.74,3.21S250.21,66,250.21,63.5Z"/><path class="cls-1" d="M267.9,59.56a3.66,3.66,0,0,1-3.7,3.65h-1.92v3.67h-2.15V55.94h4.07A3.64,3.64,0,0,1,267.9,59.56Zm-2.16,0A1.56,1.56,0,0,0,264.2,58h-1.92v3.24h1.92A1.57,1.57,0,0,0,265.74,59.56Z"/><path class="cls-1" d="M272.23,55.94V66.88h-2.15V55.94Z"/><path class="cls-1" d="M281.64,58H279v8.88h-2.15V58h-2.62V55.94h7.41Z"/><path class="cls-1" d="M289,64.91h-4.18l-.63,2h-2.32l3.71-10.94h2.67L292,66.88h-2.34Zm-.64-2-1.45-4.56-1.45,4.56Z"/><path class="cls-1" d="M300,64.82v2.06h-6.21V55.94h2.15v8.88Z"/><path class="cls-1" d="M233.52,81.57v2.06H227V72.69h6.4v2.06h-4.25v2.34h3.86v2h-3.86v2.46Z"/><path class="cls-1" d="M244,72.69V83.63h-1.64l-4.24-6.77v6.77h-2.15V72.69h1.64l4.25,6.75V72.69Z"/><path class="cls-1" d="M251.13,78.16a5.54,5.54,0,0,1,5.68-5.69,5.33,5.33,0,0,1,5.3,4.12h-2.26a3.08,3.08,0,0,0-3-2,3.59,3.59,0,0,0,0,7.18,3.06,3.06,0,0,0,3-2h2.26a5.33,5.33,0,0,1-5.3,4.13A5.55,5.55,0,0,1,251.13,78.16Z"/><path class="cls-1" d="M270.08,81.66H265.9l-.62,2H263l3.71-10.94h2.67L273,83.63H270.7Zm-.64-2L268,75.08l-1.45,4.56Z"/><path class="cls-1" d="M274.18,80.25h2.16c0,1,.62,1.49,1.84,1.49s1.6-.47,1.6-1.1c0-.78-.87-1.12-1.92-1.48-1.56-.57-3.47-1.19-3.47-3.5a3.25,3.25,0,0,1,3.54-3.19A3.4,3.4,0,0,1,281.61,76h-2.14a1.34,1.34,0,0,0-1.54-1.44c-.89,0-1.41.45-1.41,1.1s.75,1.15,1.77,1.53c1.57.56,3.63,1.14,3.63,3.45,0,2.1-1.72,3.21-3.74,3.21S274.18,82.72,274.18,80.25Z"/><path class="cls-1" d="M290.19,81.66H286l-.63,2h-2.32l3.71-10.94h2.67l3.71,10.94h-2.34Zm-.64-2-1.45-4.56-1.45,4.56Z"/><path class="cls-2" d="M46.75,62.94s10.19,95.6,96.56,14.29C217.41,7.48,154.23-6,109.52,2.12,62.18,10.76,43.54,20,46.75,62.94Z"/><path class="cls-1" d="M81.07,25.29h4.24a1.33,1.33,0,0,1,1.33,1.32V83a1.34,1.34,0,0,1-1.33,1.33H81.07A1.33,1.33,0,0,1,79.75,83V77.4H79.6c-2.91,4.14-7.95,7-14.84,7a21,21,0,0,1-21-21.3A20.61,20.61,0,0,1,64.46,42.68c5.89,0,11.85,2.46,15.14,7.21h.15V26.61A1.32,1.32,0,0,1,81.07,25.29ZM65.68,49.12A14.45,14.45,0,1,0,79.75,63.61,14.43,14.43,0,0,0,65.68,49.12Z"/><path class="cls-1" d="M127.21,44.52h4.91a1.32,1.32,0,0,1,1.21,1.85L117.26,83.65a1.3,1.3,0,0,1-1.21.8h-4.69a1.32,1.32,0,0,1-1.21-.8L94.09,46.37a1.32,1.32,0,0,1,1.21-1.85h4.9a1.34,1.34,0,0,1,1.23.82L113,72.28c.45,1.09,1,1.09,1.45,0L126,45.34A1.32,1.32,0,0,1,127.21,44.52Z"/><path class="cls-3" d="M146.34,29.17s-10-3.45-7,5.62,7.91,5.38,9.57,1.59S150.68,30.81,146.34,29.17Z"/><path class="cls-1" d="M142.25,44.52h4.24a1.33,1.33,0,0,1,1.32,1.33V83.13a1.32,1.32,0,0,1-1.32,1.32h-4.24a1.32,1.32,0,0,1-1.32-1.32V45.85A1.33,1.33,0,0,1,142.25,44.52Z"/><path class="cls-1" d="M161.87,34.87h4.24a1.32,1.32,0,0,1,1.32,1.32v7a1.32,1.32,0,0,0,1.32,1.32h3.7a1.33,1.33,0,0,1,1.32,1.33v3.4a1.33,1.33,0,0,1-1.32,1.33h-3.7a1.32,1.32,0,0,0-1.32,1.32V75.1c0,2.15.69,2.91,3.36,2.91h1.82a1.33,1.33,0,0,1,1.32,1.33v3.77a1.32,1.32,0,0,1-1.29,1.32c-.86,0-1.89,0-2.92,0-7,0-9.17-2.45-9.17-8.58v-24a1.33,1.33,0,0,0-1.33-1.32h-2.86A1.33,1.33,0,0,1,155,49.25v-3.4a1.33,1.33,0,0,1,1.32-1.33h2.86a1.33,1.33,0,0,0,1.33-1.32v-7A1.32,1.32,0,0,1,161.87,34.87Z"/><path class="cls-1" d="M18.05,42.68A35.53,35.53,0,0,0,5.46,45a1.71,1.71,0,0,0-.92,2.39L5.9,50a1.71,1.71,0,0,0,2.2.79,23.58,23.58,0,0,1,9.57-2.09c5.35,0,11.92,1.45,11.92,8v.76A1.7,1.7,0,0,1,27,59a18.65,18.65,0,0,0-9.73-2.6C6.19,56.4,0,62.84,0,70.12,0,79,7.65,84.45,17.36,84.45a16.4,16.4,0,0,0,10.55-3.27A1.3,1.3,0,0,1,30,82c0,1.89.12,2.28,1.57,2.28H34.4c1.32,0,2.08.19,2.08-.93V56.25C36.48,46.75,27.61,42.68,18.05,42.68Zm8,30.75c-3,5-11.68,9.82-16.94-2S21.63,64,21.63,64C29.29,66.12,29.12,68.37,26.09,73.43Z"/><path class="cls-1" d="M199.13,42.68A35.45,35.45,0,0,0,186.55,45a1.71,1.71,0,0,0-.92,2.39L187,50a1.71,1.71,0,0,0,2.2.79,23.65,23.65,0,0,1,9.57-2.09c5.35,0,11.93,1.45,11.93,8v.76A1.7,1.7,0,0,1,208.09,59a18.64,18.64,0,0,0-9.72-2.6c-11.09,0-17.29,6.44-17.29,13.72,0,8.89,7.65,14.33,17.36,14.33A16.45,16.45,0,0,0,209,81.18a1.3,1.3,0,0,1,2.13.85c0,1.89.12,2.28,1.56,2.28h2.79c1.32,0,2.08.19,2.08-.93V56.25C217.56,46.75,208.69,42.68,199.13,42.68Zm8.05,30.75c-3,5-11.68,9.82-16.94-2S202.71,64,202.71,64C210.37,66.12,210.21,68.37,207.18,73.43Z"/></svg>