<?xml version="1.0" encoding="utf-8"?>
<!-- Generator: Adobe Illustrator 25.2.3, SVG Export Plug-In . SVG Version: 6.00 Build 0)  -->
<svg version="1.1" id="Layer_1" xmlns="http://www.w3.org/2000/svg" xmlns:xlink="http://www.w3.org/1999/xlink" x="0px" y="0px"
	 viewBox="0 0 300 110" style="enable-background:new 0 0 300 110;" xml:space="preserve">
<style type="text/css">
	.st0{fill:#FFFFFF;}
	.st1{fill:#73308A;}
	.st2{fill:#00A7E1;}
</style>
<g>
	<g>
		<path class="st0" d="M235,55.9v10.9h-2.2v-4.6h-3.6v4.6H227V55.9h2.2v4.3h3.6v-4.3H235z"/>
		<path class="st0" d="M237.3,61.4c0-3.2,2.5-5.7,5.7-5.7c3.2,0,5.7,2.5,5.7,5.7c0,3.2-2.5,5.7-5.7,5.7
			C239.8,67.1,237.3,64.6,237.3,61.4z M246.5,61.4c0-2.1-1.5-3.6-3.5-3.6c-2,0-3.5,1.5-3.5,3.6c0,2.1,1.5,3.6,3.5,3.6
			C244.9,65,246.5,63.5,246.5,61.4z"/>
		<path class="st0" d="M250.2,63.5h2.2c0,1,0.6,1.5,1.8,1.5c1.1,0,1.6-0.5,1.6-1.1c0-0.8-0.9-1.1-1.9-1.5c-1.6-0.6-3.5-1.2-3.5-3.5
			c0-2.1,1.7-3.2,3.5-3.2c1.9,0,3.7,1.1,3.7,3.5h-2.1c0-1-0.6-1.4-1.5-1.4c-0.9,0-1.4,0.5-1.4,1.1c0,0.8,0.7,1.2,1.8,1.5
			c1.6,0.6,3.6,1.1,3.6,3.4c0,2.1-1.7,3.2-3.7,3.2C252,67.1,250.2,66,250.2,63.5z"/>
		<path class="st0" d="M267.9,59.6c0,2-1.6,3.6-3.7,3.6h-1.9v3.7h-2.2V55.9h2.2h1.9C266.3,55.9,267.9,57.6,267.9,59.6z M265.7,59.6
			c0-0.9-0.7-1.6-1.5-1.6h-1.9v3.2h1.9C265.1,61.2,265.7,60.5,265.7,59.6z"/>
		<path class="st0" d="M272.2,55.9v10.9h-2.2V55.9H272.2z"/>
		<path class="st0" d="M281.6,58H279v8.9h-2.2V58h-2.6v-2.1h4.8h2.6V58z"/>
		<path class="st0" d="M289,64.9h-4.2l-0.6,2h-2.3l3.7-10.9h2.7l3.7,10.9h-2.3L289,64.9z M288.3,62.9l-1.5-4.6l-1.5,4.6H288.3z"/>
		<path class="st0" d="M300,64.8v2.1h-6.2V55.9h2.2v8.9H300z"/>
		<path class="st0" d="M233.5,81.5v2.1h-5.8H227V72.7h2.2h4.2v2.1h-4.2v2.3h3.9v2h-3.9v2.4H233.5z"/>
		<path class="st0" d="M244,72.7v10.9h-1.6l-4.2-6.8v6.8h-2.2V72.7h1.6l4.3,6.7v-6.7H244z"/>
		<path class="st0" d="M251.1,78.1c0-3.2,2.4-5.7,5.7-5.7c2.6,0,4.8,1.7,5.3,4.1h-2.3c-0.4-1.2-1.6-2-3-2c-2.1,0-3.5,1.5-3.5,3.6
			c0,2.1,1.4,3.6,3.5,3.6c1.4,0,2.7-0.8,3-2h2.3c-0.5,2.4-2.7,4.1-5.3,4.1C253.5,83.8,251.1,81.3,251.1,78.1z"/>
		<path class="st0" d="M270.1,81.6h-4.2l-0.6,2H263l3.7-10.9h2.7l3.7,10.9h-2.3L270.1,81.6z M269.4,79.6L268,75l-1.5,4.6H269.4z"/>
		<path class="st0" d="M274.2,80.2h2.2c0,1,0.6,1.5,1.8,1.5c1.1,0,1.6-0.5,1.6-1.1c0-0.8-0.9-1.1-1.9-1.5c-1.6-0.6-3.5-1.2-3.5-3.5
			c0-2.1,1.7-3.2,3.5-3.2c1.9,0,3.7,1.1,3.7,3.5h-2.1c0-1-0.6-1.4-1.5-1.4c-0.9,0-1.4,0.5-1.4,1.1c0,0.8,0.7,1.2,1.8,1.5
			c1.6,0.6,3.6,1.1,3.6,3.4c0,2.1-1.7,3.2-3.7,3.2C276,83.8,274.2,82.7,274.2,80.2z"/>
		<path class="st0" d="M290.2,81.6H286l-0.6,2h-2.3l3.7-10.9h2.7l3.7,10.9h-2.3L290.2,81.6z M289.5,79.6l-1.5-4.6l-1.5,4.6H289.5z"
			/>
	</g>
	<path class="st1" d="M46.7,62.9c0,0,10.2,95.4,96.6,14.3c74.1-69.6,10.9-83.1-33.8-75C62.2,10.9,43.5,20.1,46.7,62.9z"/>
	<g>
		<path class="st0" d="M81.1,25.4h4.2c0.7,0,1.3,0.6,1.3,1.3v56.2c0,0.7-0.6,1.3-1.3,1.3h-4.2c-0.7,0-1.3-0.6-1.3-1.3v-5.5h-0.2
			c-2.9,4.1-8,7-14.8,7c-11.1,0-21-8.7-21-21.3c0-11.5,9.5-20.4,20.7-20.4c5.9,0,11.9,2.4,15.1,7.2h0.2V26.7
			C79.8,26,80.3,25.4,81.1,25.4z M65.7,49.1c-9.3,0-14.6,7.4-14.6,14.1c0,9.2,7.1,14.8,14.4,14.8c7.9,0,14.3-6.4,14.3-14.4
			C79.8,55.6,73.2,49.1,65.7,49.1z"/>
		<path class="st0" d="M127.2,44.6h4.9c0.9,0,1.6,1,1.2,1.8l-16.1,37.2c-0.2,0.5-0.7,0.8-1.2,0.8h-4.7c-0.5,0-1-0.3-1.2-0.8
			L94.1,46.4c-0.4-0.9,0.3-1.8,1.2-1.8h4.9c0.5,0,1,0.3,1.2,0.8L113,72.3c0.4,1.1,1,1.1,1.4,0L126,45.4
			C126.2,44.9,126.7,44.6,127.2,44.6z"/>
		<g>
			<path class="st2" d="M146.3,29.2c0,0-10-3.4-7,5.6c3,9,7.9,5.4,9.6,1.6C150.6,32.6,150.7,30.9,146.3,29.2z"/>
			<path class="st0" d="M142.3,44.6h4.2c0.7,0,1.3,0.6,1.3,1.3v37.2c0,0.7-0.6,1.3-1.3,1.3h-4.2c-0.7,0-1.3-0.6-1.3-1.3V45.9
				C140.9,45.1,141.5,44.6,142.3,44.6z"/>
		</g>
		<path class="st0" d="M161.9,34.9h4.2c0.7,0,1.3,0.6,1.3,1.3v7c0,0.7,0.6,1.3,1.3,1.3h3.7c0.7,0,1.3,0.6,1.3,1.3v3.4
			c0,0.7-0.6,1.3-1.3,1.3h-3.7c-0.7,0-1.3,0.6-1.3,1.3v23.2c0,2.1,0.7,2.9,3.4,2.9h1.8c0.7,0,1.3,0.6,1.3,1.3v3.8
			c0,0.7-0.6,1.3-1.3,1.3c-0.9,0-1.9,0-2.9,0c-7,0-9.2-2.4-9.2-8.6V51.9c0-0.7-0.6-1.3-1.3-1.3h-2.9c-0.7,0-1.3-0.6-1.3-1.3v-3.4
			c0-0.7,0.6-1.3,1.3-1.3h2.9c0.7,0,1.3-0.6,1.3-1.3v-7C160.5,35.5,161.1,34.9,161.9,34.9z"/>
		<path class="st0" d="M18,42.7c-3.2,0-7.4,0.4-12.6,2.4c-1,0.4-1.4,1.5-0.9,2.4l1.4,2.6c0.4,0.8,1.4,1.1,2.2,0.8
			c3.2-1.4,6.3-2.1,9.6-2.1c5.4,0,11.9,1.5,11.9,8v0.8c0,1.3-1.5,2.1-2.6,1.4c-3.1-1.9-6.5-2.6-9.7-2.6C6.2,56.4,0,62.8,0,70.1
			C0,79,7.6,84.4,17.4,84.4c4.2,0,7.6-1,10.6-3.3C28.7,80.5,30,81,30,82c0,1.9,0.1,2.3,1.6,2.3h2.8c1.3,0,2.1,0.2,2.1-0.9V56.3
			C36.5,46.8,27.6,42.7,18,42.7z M26.1,73.4c-3,5-11.7,9.8-16.9-2C3.9,59.6,21.6,64,21.6,64C29.3,66.1,29.1,68.4,26.1,73.4z"/>
		<path class="st0" d="M199.1,42.7c-3.2,0-7.4,0.4-12.6,2.4c-1,0.4-1.4,1.5-0.9,2.4l1.4,2.6c0.4,0.8,1.4,1.1,2.2,0.8
			c3.2-1.4,6.3-2.1,9.6-2.1c5.4,0,11.9,1.5,11.9,8v0.8c0,1.3-1.5,2.1-2.6,1.4c-3.1-1.9-6.5-2.6-9.7-2.6c-11.1,0-17.3,6.4-17.3,13.7
			c0,8.9,7.6,14.3,17.4,14.3c4.2,0,7.6-1,10.6-3.3c0.8-0.6,2.1-0.1,2.1,0.9c0,1.9,0.1,2.3,1.6,2.3h2.8c1.3,0,2.1,0.2,2.1-0.9V56.3
			C217.6,46.8,208.7,42.7,199.1,42.7z M207.2,73.4c-3,5-11.7,9.8-16.9-2C185,59.6,202.7,64,202.7,64
			C210.4,66.1,210.2,68.4,207.2,73.4z"/>
	</g>
</g>
</svg>
