<svg id="Layer_1" data-name="Layer 1" xmlns="http://www.w3.org/2000/svg" viewBox="0 0 270 100"><defs><style>.cls-1{fill:#fff;}.cls-2{fill:#ec008c;}.cls-3{fill:#00a7e1;}</style></defs><path class="cls-1" d="M211.36,50.84v9.81h-1.93V56.53h-3.26v4.12h-1.93V50.84h1.93v3.84h3.26V50.84Z"/><path class="cls-1" d="M213.44,55.75a5.1,5.1,0,1,1,5.09,5.1A5,5,0,0,1,213.44,55.75Zm8.25,0A3.17,3.17,0,1,0,218.53,59,3.1,3.1,0,0,0,221.69,55.75Z"/><path class="cls-1" d="M225.06,57.63H227c0,.89.56,1.33,1.66,1.33s1.44-.42,1.44-1-.78-1-1.72-1.34c-1.41-.5-3.13-1.06-3.13-3.14a2.92,2.92,0,0,1,3.18-2.86,3.06,3.06,0,0,1,3.31,3.17h-1.92c0-.85-.5-1.29-1.39-1.29s-1.26.41-1.26,1,.67,1,1.59,1.38c1.41.5,3.26,1,3.26,3.1,0,1.87-1.54,2.87-3.36,2.87S225.06,59.84,225.06,57.63Z"/><path class="cls-1" d="M241,54.09a3.28,3.28,0,0,1-3.33,3.27h-1.72v3.29H234V50.84h3.66A3.27,3.27,0,0,1,241,54.09Zm-1.94,0a1.39,1.39,0,0,0-1.39-1.44h-1.72v2.9h1.72A1.4,1.4,0,0,0,239,54.09Z"/><path class="cls-1" d="M244.85,50.84v9.81h-1.93V50.84Z"/><path class="cls-1" d="M253.31,52.69h-2.37v8H249v-8h-2.35V50.84h6.66Z"/><path class="cls-1" d="M259.91,58.89h-3.76l-.56,1.76H253.5l3.34-9.81h2.4l3.34,9.81h-2.11Zm-.57-1.81L258,53l-1.3,4.1Z"/><path class="cls-1" d="M269.81,58.8v1.85h-5.58V50.84h1.93v8Z"/><path class="cls-1" d="M210.06,73.82v1.85h-5.82V65.86H210v1.85h-3.82v2.1h3.47v1.81h-3.47v2.2Z"/><path class="cls-1" d="M219.44,65.86v9.81H218l-3.82-6.07v6.07h-1.93V65.86h1.47l3.83,6.06V65.86Z"/><path class="cls-1" d="M225.89,70.77a5,5,0,0,1,5.1-5.11,4.79,4.79,0,0,1,4.77,3.71h-2A2.76,2.76,0,0,0,231,67.54,3.22,3.22,0,0,0,231,74a2.74,2.74,0,0,0,2.73-1.81h2a4.79,4.79,0,0,1-4.77,3.7A5,5,0,0,1,225.89,70.77Z"/><path class="cls-1" d="M242.92,73.91h-3.76l-.56,1.76h-2.09l3.34-9.81h2.4l3.33,9.81h-2.1Zm-.58-1.81L241,68l-1.3,4.09Z"/><path class="cls-1" d="M246.61,72.65h1.93c0,.89.56,1.33,1.66,1.33s1.44-.42,1.44-1-.78-1-1.72-1.34c-1.41-.5-3.13-1.06-3.13-3.14A2.93,2.93,0,0,1,250,65.66a3.06,3.06,0,0,1,3.31,3.17h-1.92c0-.85-.5-1.29-1.39-1.29s-1.26.41-1.26,1c0,.72.67,1,1.58,1.38,1.42.5,3.27,1,3.27,3.1,0,1.88-1.54,2.87-3.36,2.87S246.61,74.86,246.61,72.65Z"/><path class="cls-1" d="M261,73.91h-3.76l-.56,1.76h-2.09l3.34-9.81h2.4l3.34,9.81h-2.11Zm-.57-1.81L259.11,68l-1.3,4.09Z"/><path class="cls-2" d="M42.21,57.12S51.37,142.85,129,69.93C195.58,7.38,138.8-4.75,98.62,2.57,56.08,10.32,39.32,18.64,42.21,57.12Z"/><path class="cls-1" d="M73.05,23.35h3.82a1.19,1.19,0,0,1,1.18,1.19V75.07a1.19,1.19,0,0,1-1.18,1.19H73.05a1.19,1.19,0,0,1-1.18-1.19v-5h-.14c-2.61,3.71-7.15,6.32-13.33,6.32a18.84,18.84,0,0,1-18.9-19.1A18.5,18.5,0,0,1,58.12,39c5.29,0,10.65,2.2,13.61,6.47h.14V24.54A1.19,1.19,0,0,1,73.05,23.35ZM59.22,44.73a13,13,0,1,0,12.65,13A13,13,0,0,0,59.22,44.73Z"/><path class="cls-1" d="M114.52,40.6h4.41A1.19,1.19,0,0,1,120,42.26L105.58,75.7a1.2,1.2,0,0,1-1.09.71h-4.21a1.18,1.18,0,0,1-1.09-.71L84.75,42.26a1.19,1.19,0,0,1,1.09-1.66h4.41a1.19,1.19,0,0,1,1.1.74L101.73,65.5c.41,1,.9,1,1.3,0l10.39-24.16A1.18,1.18,0,0,1,114.52,40.6Z"/><path class="cls-3" d="M131.71,26.83s-9-3.08-6.3,5,7.11,4.83,8.6,1.44S135.61,28.31,131.71,26.83Z"/><path class="cls-1" d="M128,40.6h3.81A1.19,1.19,0,0,1,133,41.79V75.22a1.18,1.18,0,0,1-1.18,1.19H128a1.19,1.19,0,0,1-1.19-1.19V41.79A1.19,1.19,0,0,1,128,40.6Z"/><path class="cls-1" d="M145.66,31.94h3.82a1.19,1.19,0,0,1,1.18,1.19v6.29a1.18,1.18,0,0,0,1.19,1.18h3.33a1.2,1.2,0,0,1,1.19,1.19v3.06A1.19,1.19,0,0,1,155.18,46h-3.33a1.19,1.19,0,0,0-1.19,1.19V68c0,1.92.62,2.61,3,2.61h1.63a1.18,1.18,0,0,1,1.18,1.19v3.38a1.17,1.17,0,0,1-1.15,1.18c-.78,0-1.7,0-2.63,0-6.32,0-8.24-2.2-8.24-7.7V47.22A1.19,1.19,0,0,0,143.29,46h-2.57a1.18,1.18,0,0,1-1.19-1.18V41.79a1.19,1.19,0,0,1,1.19-1.19h2.57a1.18,1.18,0,0,0,1.19-1.18V33.13A1.19,1.19,0,0,1,145.66,31.94Z"/><path class="cls-1" d="M16.41,39A31.81,31.81,0,0,0,5.1,41.07a1.53,1.53,0,0,0-.82,2.14l1.21,2.34a1.54,1.54,0,0,0,2,.71,21.23,21.23,0,0,1,8.6-1.88c4.81,0,10.72,1.31,10.72,7.22v.69a1.53,1.53,0,0,1-2.33,1.3,16.76,16.76,0,0,0-8.74-2.33C5.76,51.26.19,57,.19,63.56c0,8,6.87,12.85,15.6,12.85a14.71,14.71,0,0,0,9.49-2.94,1.17,1.17,0,0,1,1.91.77c0,1.69.11,2,1.41,2h2.5c1.19,0,1.87.18,1.87-.83V51.12C33,42.6,25,39,16.41,39Zm7.23,27.58C21,71,13.15,75.34,8.42,64.74s11.21-6.66,11.21-6.66C26.51,60,26.37,62,23.64,66.53Z"/><path class="cls-1" d="M179.16,39a31.77,31.77,0,0,0-11.31,2.12,1.53,1.53,0,0,0-.83,2.14l1.22,2.34a1.53,1.53,0,0,0,2,.71,21.23,21.23,0,0,1,8.6-1.88c4.81,0,10.72,1.31,10.72,7.22v.69a1.52,1.52,0,0,1-2.32,1.3,16.76,16.76,0,0,0-8.74-2.33c-10,0-15.53,5.77-15.53,12.3,0,8,6.87,12.85,15.6,12.85A14.68,14.68,0,0,0,188,73.47a1.17,1.17,0,0,1,1.92.77c0,1.69.1,2,1.4,2h2.51c1.19,0,1.87.18,1.87-.83V51.12C195.72,42.6,187.75,39,179.16,39Zm7.23,27.58c-2.68,4.46-10.5,8.81-15.23-1.79s11.21-6.66,11.21-6.66C189.26,60,189.11,62,186.39,66.53Z"/></svg>