<svg id="Layer_1" data-name="Layer 1" xmlns="http://www.w3.org/2000/svg" viewBox="0 0 60 60"><defs><style>.cls-1,.cls-2{fill:#f15e2b;}.cls-1{opacity:0.3;}.cls-3{fill:none;stroke:#fff;stroke-linecap:round;stroke-miterlimit:10;stroke-width:1.6px;}</style></defs><path class="cls-1" d="M51.33,39c5.86-16.8,2.51-23.06-15.75-30.23,0,0-39-16.69-24.7,23C25.47,72.29,47.89,48.86,51.33,39Z"/><path class="cls-1" d="M53.82,23.39c-7.41-15.28-13.89-17.25-31-9.73,0,0-37.58,15.09-1.11,32.21C58.9,63.34,58.18,32.39,53.82,23.39Z"/><path class="cls-2" d="M54.09,30.48C52.88,12.75,47.36,8.31,27.77,8.88c0,0-42.37-.07-13.68,30.82C43.38,71.23,54.8,40.91,54.09,30.48Z"/><path class="cls-3" d="M46.87,25.39H39.5a1,1,0,0,1-1-1V17a1,1,0,0,0-1-1H28.25a1,1,0,0,0-1,1v7.37a1,1,0,0,1-1,1H18.87a1,1,0,0,0-1,1v9.25a1,1,0,0,0,1,1h7.38a1,1,0,0,1,1,1V45a1,1,0,0,0,1,1H37.5a1,1,0,0,0,1-1V37.64a1,1,0,0,1,1-1h7.37a1,1,0,0,0,1-1V26.39A1,1,0,0,0,46.87,25.39Z"/></svg>