<svg id="Layer_1" data-name="Layer 1" xmlns="http://www.w3.org/2000/svg" viewBox="0 0 70 70"><defs><style>.cls-1,.cls-2{fill:#00a7e1;}.cls-1{opacity:0.1;}</style></defs><circle class="cls-1" cx="35" cy="35" r="35"/><path class="cls-2" d="M20.19,54.59A4.78,4.78,0,0,1,16.8,53.2l-.08-.08a5,5,0,0,1,.26-7l10.75-9.71-.14-.27A14.28,14.28,0,0,1,40.33,15.41a14.28,14.28,0,0,1,0,28.55,14.06,14.06,0,0,1-6.44-1.55l-.28-.14L23.87,53a4.87,4.87,0,0,1-3.58,1.57Zm-2-7.08-.21.21a3,3,0,0,0-.78,2.17,3,3,0,0,0,3,2.87,3,3,0,0,0,2.23-1l5.91-6.53-3.63-3.63Zm7.92-7.16,3.5,3.5L32,41.27,31.64,41A12.39,12.39,0,0,1,29,38.36L28.74,38Zm14.17-23a12.61,12.61,0,0,0-8.77,3.52,12.41,12.41,0,1,0,17.54,0A12.61,12.61,0,0,0,40.32,17.39Z"/></svg>